<mxfile host="65bd71144e">
    <diagram id="7sxDZyWkMXktP_-42aA4" name="Page-1">
        <mxGraphModel dx="667" dy="548" grid="1" gridSize="10" guides="1" tooltips="1" connect="1" arrows="1" fold="1" page="1" pageScale="1" pageWidth="1169" pageHeight="827" background="none" math="0" shadow="0">
            <root>
                <mxCell id="0"/>
                <mxCell id="1" parent="0"/>
                <mxCell id="5" value="Version" style="rounded=0;whiteSpace=wrap;html=1;" parent="1" vertex="1">
                    <mxGeometry x="760" y="254" width="80" height="40" as="geometry"/>
                </mxCell>
                <mxCell id="7" value="NameCounter" style="rounded=0;whiteSpace=wrap;html=1;" parent="1" vertex="1">
                    <mxGeometry x="840" y="254" width="120" height="40" as="geometry"/>
                </mxCell>
                <mxCell id="8" value="SegCount" style="rounded=0;whiteSpace=wrap;html=1;" parent="1" vertex="1">
                    <mxGeometry x="959" y="254" width="111" height="40" as="geometry"/>
                </mxCell>
                <mxCell id="11" value="SegmentCommitInfo" style="rounded=0;whiteSpace=wrap;html=1;fillColor=#E6E6E6;" parent="1" vertex="1">
                    <mxGeometry x="1450" y="254" width="160" height="40" as="geometry"/>
                </mxCell>
                <mxCell id="12" value="... ..." style="text;html=1;strokeColor=none;fillColor=none;align=center;verticalAlign=middle;whiteSpace=wrap;rounded=0;" parent="1" vertex="1">
                    <mxGeometry x="1420" y="266.5" width="30" height="15" as="geometry"/>
                </mxCell>
                <mxCell id="14" value="CommitUserData" style="rounded=0;whiteSpace=wrap;html=1;fillColor=#FFCCCC;" parent="1" vertex="1">
                    <mxGeometry x="1610" y="254" width="140" height="40" as="geometry"/>
                </mxCell>
                <mxCell id="64" value="" style="group" parent="1" vertex="1" connectable="0">
                    <mxGeometry x="580" y="134" width="240" height="160" as="geometry"/>
                </mxCell>
                <mxCell id="3" value="LuceneVersion" style="rounded=0;whiteSpace=wrap;html=1;fillColor=#FFFFCC;" parent="64" vertex="1">
                    <mxGeometry x="60" y="120" width="120" height="40" as="geometry"/>
                </mxCell>
                <mxCell id="16" value="major" style="rounded=0;whiteSpace=wrap;html=1;" parent="64" vertex="1">
                    <mxGeometry width="80" height="40" as="geometry"/>
                </mxCell>
                <mxCell id="17" value="minor" style="rounded=0;whiteSpace=wrap;html=1;" parent="64" vertex="1">
                    <mxGeometry x="80" width="80" height="40" as="geometry"/>
                </mxCell>
                <mxCell id="18" value="bugfix" style="rounded=0;whiteSpace=wrap;html=1;" parent="64" vertex="1">
                    <mxGeometry x="160" width="80" height="40" as="geometry"/>
                </mxCell>
                <mxCell id="33" value="" style="endArrow=none;dashed=1;html=1;entryX=0;entryY=1;entryDx=0;entryDy=0;exitX=0;exitY=0;exitDx=0;exitDy=0;" parent="64" source="3" target="16" edge="1">
                    <mxGeometry width="50" height="50" relative="1" as="geometry">
                        <mxPoint x="-125" y="370" as="sourcePoint"/>
                        <mxPoint x="-20" y="155" as="targetPoint"/>
                    </mxGeometry>
                </mxCell>
                <mxCell id="34" value="" style="endArrow=none;dashed=1;html=1;entryX=1;entryY=1;entryDx=0;entryDy=0;exitX=0;exitY=0;exitDx=0;exitDy=0;" parent="64" source="5" target="18" edge="1">
                    <mxGeometry width="50" height="50" relative="1" as="geometry">
                        <mxPoint x="70" y="115" as="sourcePoint"/>
                        <mxPoint x="10" y="30" as="targetPoint"/>
                    </mxGeometry>
                </mxCell>
                <mxCell id="68" value="" style="group" parent="1" vertex="1" connectable="0">
                    <mxGeometry x="1045" y="134" width="240" height="160" as="geometry"/>
                </mxCell>
                <mxCell id="76" value="" style="group" parent="68" vertex="1" connectable="0">
                    <mxGeometry width="240" height="160" as="geometry"/>
                </mxCell>
                <mxCell id="9" value="MinSegmentLuceneVersion" style="rounded=0;whiteSpace=wrap;html=1;fillColor=#E6FFCC;" parent="76" vertex="1">
                    <mxGeometry x="25" y="120" width="190" height="40" as="geometry"/>
                </mxCell>
                <mxCell id="36" value="major" style="rounded=0;whiteSpace=wrap;html=1;" parent="76" vertex="1">
                    <mxGeometry width="80" height="40" as="geometry"/>
                </mxCell>
                <mxCell id="37" value="minor" style="rounded=0;whiteSpace=wrap;html=1;" parent="76" vertex="1">
                    <mxGeometry x="80" width="80" height="40" as="geometry"/>
                </mxCell>
                <mxCell id="38" value="bugfix" style="rounded=0;whiteSpace=wrap;html=1;" parent="76" vertex="1">
                    <mxGeometry x="160" width="80" height="40" as="geometry"/>
                </mxCell>
                <mxCell id="39" value="" style="endArrow=none;dashed=1;html=1;entryX=0;entryY=1;entryDx=0;entryDy=0;exitX=0;exitY=0;exitDx=0;exitDy=0;" parent="76" source="9" target="36" edge="1">
                    <mxGeometry width="50" height="50" relative="1" as="geometry">
                        <mxPoint x="-275" y="115" as="sourcePoint"/>
                        <mxPoint x="-215" y="30" as="targetPoint"/>
                    </mxGeometry>
                </mxCell>
                <mxCell id="69" value="" style="group" parent="1" vertex="1" connectable="0">
                    <mxGeometry x="1645" y="134" width="300" height="160" as="geometry"/>
                </mxCell>
                <mxCell id="77" value="" style="group" parent="69" vertex="1" connectable="0">
                    <mxGeometry width="300" height="160" as="geometry"/>
                </mxCell>
                <mxCell id="15" value="Footer" style="rounded=0;whiteSpace=wrap;html=1;fillColor=#CCE5FF;" parent="77" vertex="1">
                    <mxGeometry x="105" y="120" width="90" height="40" as="geometry"/>
                </mxCell>
                <mxCell id="53" value="Magic" style="rounded=0;whiteSpace=wrap;html=1;" parent="77" vertex="1">
                    <mxGeometry width="80" height="40" as="geometry"/>
                </mxCell>
                <mxCell id="54" value="AlgorithmId" style="rounded=0;whiteSpace=wrap;html=1;" parent="77" vertex="1">
                    <mxGeometry x="80" width="110" height="40" as="geometry"/>
                </mxCell>
                <mxCell id="55" value="CheckSum" style="rounded=0;whiteSpace=wrap;html=1;" parent="77" vertex="1">
                    <mxGeometry x="190" width="110" height="40" as="geometry"/>
                </mxCell>
                <mxCell id="56" value="" style="endArrow=none;dashed=1;html=1;exitX=0;exitY=0;exitDx=0;exitDy=0;entryX=0;entryY=1;entryDx=0;entryDy=0;" parent="77" source="15" target="53" edge="1">
                    <mxGeometry width="50" height="50" relative="1" as="geometry">
                        <mxPoint x="125" y="70" as="sourcePoint"/>
                        <mxPoint x="175" y="20" as="targetPoint"/>
                    </mxGeometry>
                </mxCell>
                <mxCell id="57" value="" style="endArrow=none;dashed=1;html=1;exitX=1;exitY=0;exitDx=0;exitDy=0;entryX=1;entryY=1;entryDx=0;entryDy=0;" parent="77" source="15" target="55" edge="1">
                    <mxGeometry width="50" height="50" relative="1" as="geometry">
                        <mxPoint x="115" y="130" as="sourcePoint"/>
                        <mxPoint x="10" y="50" as="targetPoint"/>
                    </mxGeometry>
                </mxCell>
                <mxCell id="70" value="" style="group" parent="1" vertex="1" connectable="0">
                    <mxGeometry x="810" y="254" width="1060" height="160" as="geometry"/>
                </mxCell>
                <mxCell id="10" value="SegmentCommitInfo" style="rounded=0;whiteSpace=wrap;html=1;fillColor=#E6E6E6;" parent="70" vertex="1">
                    <mxGeometry x="450" width="160" height="40" as="geometry"/>
                </mxCell>
                <mxCell id="41" value="SegName" style="rounded=0;whiteSpace=wrap;html=1;" parent="70" vertex="1">
                    <mxGeometry y="120" width="95" height="40" as="geometry"/>
                </mxCell>
                <mxCell id="42" value="SegId" style="rounded=0;whiteSpace=wrap;html=1;" parent="70" vertex="1">
                    <mxGeometry x="95" y="120" width="75" height="40" as="geometry"/>
                </mxCell>
                <mxCell id="43" value="SegCodec" style="rounded=0;whiteSpace=wrap;html=1;" parent="70" vertex="1">
                    <mxGeometry x="170" y="120" width="100" height="40" as="geometry"/>
                </mxCell>
                <mxCell id="44" value="DelGen" style="rounded=0;whiteSpace=wrap;html=1;" parent="70" vertex="1">
                    <mxGeometry x="270" y="120" width="80" height="40" as="geometry"/>
                </mxCell>
                <mxCell id="45" value="DeletionCount" style="rounded=0;whiteSpace=wrap;html=1;" parent="70" vertex="1">
                    <mxGeometry x="350" y="120" width="120" height="40" as="geometry"/>
                </mxCell>
                <mxCell id="46" value="FieldsInfosGen" style="rounded=0;whiteSpace=wrap;html=1;" parent="70" vertex="1">
                    <mxGeometry x="470" y="120" width="120" height="40" as="geometry"/>
                </mxCell>
                <mxCell id="47" value="DocValuesGen" style="rounded=0;whiteSpace=wrap;html=1;" parent="70" vertex="1">
                    <mxGeometry x="590" y="120" width="120" height="40" as="geometry"/>
                </mxCell>
                <mxCell id="48" value="SoftDelCount" style="rounded=0;whiteSpace=wrap;html=1;" parent="70" vertex="1">
                    <mxGeometry x="710" y="120" width="120" height="40" as="geometry"/>
                </mxCell>
                <mxCell id="49" value="FieldInfosFiles" style="rounded=0;whiteSpace=wrap;html=1;" parent="70" vertex="1">
                    <mxGeometry x="830" y="120" width="120" height="40" as="geometry"/>
                </mxCell>
                <mxCell id="50" value="UpdatesFiles" style="rounded=0;whiteSpace=wrap;html=1;" parent="70" vertex="1">
                    <mxGeometry x="950" y="120" width="110" height="40" as="geometry"/>
                </mxCell>
                <mxCell id="52" value="" style="endArrow=none;dashed=1;html=1;entryX=1;entryY=1;entryDx=0;entryDy=0;exitX=1;exitY=0;exitDx=0;exitDy=0;" parent="70" source="50" target="10" edge="1">
                    <mxGeometry width="50" height="50" relative="1" as="geometry">
                        <mxPoint x="580" y="240" as="sourcePoint"/>
                        <mxPoint x="460" y="50" as="targetPoint"/>
                    </mxGeometry>
                </mxCell>
                <mxCell id="40" value="" style="endArrow=none;dashed=1;html=1;entryX=1;entryY=1;entryDx=0;entryDy=0;exitX=0;exitY=0;exitDx=0;exitDy=0;" parent="1" source="10" target="38" edge="1">
                    <mxGeometry width="50" height="50" relative="1" as="geometry">
                        <mxPoint x="1079.9999999999998" y="249" as="sourcePoint"/>
                        <mxPoint x="1055" y="164" as="targetPoint"/>
                    </mxGeometry>
                </mxCell>
                <mxCell id="75" value="" style="group" parent="1" vertex="1" connectable="0">
                    <mxGeometry x="370" y="254" width="450" height="440" as="geometry"/>
                </mxCell>
                <mxCell id="2" value="Header" style="rounded=0;whiteSpace=wrap;html=1;fillColor=#CCCCFF;fontColor=#000000;" parent="75" vertex="1">
                    <mxGeometry x="180" width="90" height="40" as="geometry"/>
                </mxCell>
                <mxCell id="20" value="ObjectId" style="rounded=0;whiteSpace=wrap;html=1;" parent="75" vertex="1">
                    <mxGeometry x="195" y="120" width="90" height="40" as="geometry"/>
                </mxCell>
                <mxCell id="31" value="" style="endArrow=none;dashed=1;html=1;entryX=0;entryY=1;entryDx=0;entryDy=0;exitX=0;exitY=0;exitDx=0;exitDy=0;" parent="75" source="19" target="2" edge="1">
                    <mxGeometry width="50" height="50" relative="1" as="geometry">
                        <mxPoint x="10" y="510" as="sourcePoint"/>
                        <mxPoint x="85" y="290" as="targetPoint"/>
                    </mxGeometry>
                </mxCell>
                <mxCell id="32" value="" style="endArrow=none;dashed=1;html=1;entryX=1;entryY=1;entryDx=0;entryDy=0;exitX=1;exitY=0;exitDx=0;exitDy=0;" parent="75" source="21" target="2" edge="1">
                    <mxGeometry width="50" height="50" relative="1" as="geometry">
                        <mxPoint x="85" y="250" as="sourcePoint"/>
                        <mxPoint x="190" y="35" as="targetPoint"/>
                    </mxGeometry>
                </mxCell>
                <mxCell id="65" value="" style="group" parent="75" vertex="1" connectable="0">
                    <mxGeometry x="230" y="120" width="220" height="120" as="geometry"/>
                </mxCell>
                <mxCell id="21" value="ObjectSuffix" style="rounded=0;whiteSpace=wrap;html=1;fillColor=#FFFF00;fontColor=#000000;" parent="65" vertex="1">
                    <mxGeometry x="55" width="110" height="40" as="geometry"/>
                </mxCell>
                <mxCell id="27" value="SuffixLength" style="rounded=0;whiteSpace=wrap;html=1;" parent="65" vertex="1">
                    <mxGeometry y="80" width="110" height="40" as="geometry"/>
                </mxCell>
                <mxCell id="28" value="SuffixBytes" style="rounded=0;whiteSpace=wrap;html=1;" parent="65" vertex="1">
                    <mxGeometry x="110" y="80" width="110" height="40" as="geometry"/>
                </mxCell>
                <mxCell id="29" value="" style="endArrow=none;dashed=1;html=1;entryX=0;entryY=1;entryDx=0;entryDy=0;exitX=0;exitY=0;exitDx=0;exitDy=0;" parent="65" source="27" target="21" edge="1">
                    <mxGeometry width="50" height="50" relative="1" as="geometry">
                        <mxPoint x="110" y="190" as="sourcePoint"/>
                        <mxPoint x="160" y="140" as="targetPoint"/>
                    </mxGeometry>
                </mxCell>
                <mxCell id="30" value="" style="endArrow=none;dashed=1;html=1;entryX=1;entryY=1;entryDx=0;entryDy=0;exitX=1;exitY=0;exitDx=0;exitDy=0;" parent="65" source="28" target="21" edge="1">
                    <mxGeometry width="50" height="50" relative="1" as="geometry">
                        <mxPoint x="100" y="160" as="sourcePoint"/>
                        <mxPoint x="65" y="50" as="targetPoint"/>
                    </mxGeometry>
                </mxCell>
                <mxCell id="74" value="" style="group" parent="75" vertex="1" connectable="0">
                    <mxGeometry y="120" width="270" height="320" as="geometry"/>
                </mxCell>
                <mxCell id="19" value="CodecHeader" style="rounded=0;whiteSpace=wrap;html=1;fillColor=#d5e8d4;strokeColor=#000000;" parent="74" vertex="1">
                    <mxGeometry x="75" width="120" height="40" as="geometry"/>
                </mxCell>
                <mxCell id="22" value="Magic" style="rounded=0;whiteSpace=wrap;html=1;" parent="74" vertex="1">
                    <mxGeometry y="280" width="80" height="40" as="geometry"/>
                </mxCell>
                <mxCell id="23" value="CodecName" style="rounded=0;whiteSpace=wrap;html=1;" parent="74" vertex="1">
                    <mxGeometry x="80" y="280" width="110" height="40" as="geometry"/>
                </mxCell>
                <mxCell id="24" value="Version" style="rounded=0;whiteSpace=wrap;html=1;" parent="74" vertex="1">
                    <mxGeometry x="190" y="280" width="80" height="40" as="geometry"/>
                </mxCell>
                <mxCell id="25" value="" style="endArrow=none;dashed=1;html=1;entryX=0;entryY=1;entryDx=0;entryDy=0;exitX=0;exitY=0;exitDx=0;exitDy=0;" parent="74" source="22" target="19" edge="1">
                    <mxGeometry width="50" height="50" relative="1" as="geometry">
                        <mxPoint x="170" y="190" as="sourcePoint"/>
                        <mxPoint x="220" y="140" as="targetPoint"/>
                    </mxGeometry>
                </mxCell>
                <mxCell id="26" value="" style="endArrow=none;dashed=1;html=1;entryX=0;entryY=1;entryDx=0;entryDy=0;exitX=1;exitY=0;exitDx=0;exitDy=0;" parent="75" source="24" target="20" edge="1">
                    <mxGeometry width="50" height="50" relative="1" as="geometry">
                        <mxPoint x="340" y="510" as="sourcePoint"/>
                        <mxPoint x="415" y="290" as="targetPoint"/>
                    </mxGeometry>
                </mxCell>
                <mxCell id="51" value="" style="endArrow=none;dashed=1;html=1;entryX=1;entryY=1;entryDx=0;entryDy=0;exitX=0;exitY=0;exitDx=0;exitDy=0;" parent="1" source="41" target="9" edge="1">
                    <mxGeometry width="50" height="50" relative="1" as="geometry">
                        <mxPoint x="1079.9999999999998" y="264" as="sourcePoint"/>
                        <mxPoint x="1055" y="184" as="targetPoint"/>
                    </mxGeometry>
                </mxCell>
            </root>
        </mxGraphModel>
    </diagram>
</mxfile>